<?xml version="1.0" encoding="utf-8"?>
<!-- Generator: Adobe Illustrator 21.0.2, SVG Export Plug-In . SVG Version: 6.00 Build 0)  -->
<svg version="1.1" id="Layer_1" xmlns="http://www.w3.org/2000/svg" xmlns:xlink="http://www.w3.org/1999/xlink" x="0px" y="0px"
	 viewBox="0 0 504 504" style="enable-background:new 0 0 504 504;" xml:space="preserve">
<style type="text/css">
	.st0{fill:#FFFFFF;}
	.st1{fill:none;stroke:#FFFFFF;stroke-width:1.067;stroke-linecap:round;stroke-linejoin:round;stroke-miterlimit:10;}
	.st2{clip-path:url(#SVGID_2_);}
	.st3{clip-path:url(#SVGID_4_);}
	.st4{fill:none;stroke:#FAFAFA;stroke-width:1.067;stroke-linejoin:round;stroke-miterlimit:10;}
	.st5{clip-path:url(#SVGID_6_);}
	.st6{clip-path:url(#SVGID_8_);}
	.st7{clip-path:url(#SVGID_10_);}
	.st8{clip-path:url(#SVGID_12_);}
	.st9{fill:none;stroke:#E5E5E5;stroke-width:0.4268;stroke-linejoin:round;stroke-miterlimit:10;}
	.st10{clip-path:url(#SVGID_14_);}
	.st11{clip-path:url(#SVGID_16_);}
	.st12{clip-path:url(#SVGID_18_);}
	.st13{clip-path:url(#SVGID_20_);}
	.st14{clip-path:url(#SVGID_22_);}
	.st15{clip-path:url(#SVGID_24_);}
	.st16{clip-path:url(#SVGID_26_);}
	.st17{clip-path:url(#SVGID_28_);}
	.st18{fill:#F8766D;stroke:#F8766D;stroke-width:0.7087;stroke-linecap:round;stroke-linejoin:round;stroke-miterlimit:10;}
	.st19{fill:#7CAE00;stroke:#7CAE00;stroke-width:0.7087;stroke-linecap:round;stroke-linejoin:round;stroke-miterlimit:10;}
	.st20{fill:#00BFC4;stroke:#00BFC4;stroke-width:0.7087;stroke-linecap:round;stroke-linejoin:round;stroke-miterlimit:10;}
	.st21{fill:#C77CFF;stroke:#C77CFF;stroke-width:0.7087;stroke-linecap:round;stroke-linejoin:round;stroke-miterlimit:10;}
	.st22{clip-path:url(#SVGID_30_);}
	.st23{fill:none;stroke:#7F7F7F;stroke-width:1.067;stroke-linecap:round;stroke-linejoin:round;stroke-miterlimit:10;}
	.st24{fill:none;stroke:#000000;stroke-width:1.067;stroke-linejoin:round;stroke-miterlimit:10;}
	.st25{fill:#FFFFFF;stroke:#CCCCCC;stroke-width:1.067;stroke-linecap:round;stroke-linejoin:round;stroke-miterlimit:10;}
</style>
<rect class="st0" width="504" height="504"/>
<rect class="st0" width="504" height="504"/>
<path class="st1" d="M0,504h504V0H0V504z"/>
<g>
	<defs>
		<rect id="SVGID_1_" x="27.9" y="6" width="359.1" height="480"/>
	</defs>
	<clipPath id="SVGID_2_">
		<use xlink:href="#SVGID_1_"  style="overflow:visible;"/>
	</clipPath>
	<g class="st2">
		<path class="st0" d="M27.9,485.8h359.1V6H27.9V485.8z"/>
	</g>
</g>
<g>
	<defs>
		<rect id="SVGID_3_" x="27.9" y="408" width="360.1" height="2"/>
	</defs>
	<clipPath id="SVGID_4_">
		<use xlink:href="#SVGID_3_"  style="overflow:visible;"/>
	</clipPath>
	<g class="st3">
		<path class="st4" d="M27.9,409.4h359.1"/>
	</g>
</g>
<g>
	<defs>
		<rect id="SVGID_5_" x="27.9" y="299" width="360.1" height="2"/>
	</defs>
	<clipPath id="SVGID_6_">
		<use xlink:href="#SVGID_5_"  style="overflow:visible;"/>
	</clipPath>
	<g class="st5">
		<path class="st4" d="M27.9,300.4h359.1"/>
	</g>
</g>
<g>
	<defs>
		<rect id="SVGID_7_" x="27.9" y="190" width="360.1" height="2"/>
	</defs>
	<clipPath id="SVGID_8_">
		<use xlink:href="#SVGID_7_"  style="overflow:visible;"/>
	</clipPath>
	<g class="st6">
		<path class="st4" d="M27.9,191.4h359.1"/>
	</g>
</g>
<g>
	<defs>
		<rect id="SVGID_9_" x="27.9" y="81" width="360.1" height="2"/>
	</defs>
	<clipPath id="SVGID_10_">
		<use xlink:href="#SVGID_9_"  style="overflow:visible;"/>
	</clipPath>
	<g class="st7">
		<path class="st4" d="M27.9,82.3h359.1"/>
	</g>
</g>
<g>
	<defs>
		<rect id="SVGID_11_" x="27.9" y="463" width="360.1" height="2"/>
	</defs>
	<clipPath id="SVGID_12_">
		<use xlink:href="#SVGID_11_"  style="overflow:visible;"/>
	</clipPath>
	<g class="st8">
		<path class="st9" d="M27.9,464h359.1"/>
	</g>
</g>
<g>
	<defs>
		<rect id="SVGID_13_" x="27.9" y="354" width="360.1" height="2"/>
	</defs>
	<clipPath id="SVGID_14_">
		<use xlink:href="#SVGID_13_"  style="overflow:visible;"/>
	</clipPath>
	<g class="st10">
		<path class="st9" d="M27.9,354.9h359.1"/>
	</g>
</g>
<g>
	<defs>
		<rect id="SVGID_15_" x="27.9" y="245" width="360.1" height="2"/>
	</defs>
	<clipPath id="SVGID_16_">
		<use xlink:href="#SVGID_15_"  style="overflow:visible;"/>
	</clipPath>
	<g class="st11">
		<path class="st9" d="M27.9,245.9h359.1"/>
	</g>
</g>
<g>
	<defs>
		<rect id="SVGID_17_" x="27.9" y="136" width="360.1" height="2"/>
	</defs>
	<clipPath id="SVGID_18_">
		<use xlink:href="#SVGID_17_"  style="overflow:visible;"/>
	</clipPath>
	<g class="st12">
		<path class="st9" d="M27.9,136.8h359.1"/>
	</g>
</g>
<g>
	<defs>
		<rect id="SVGID_19_" x="27.9" y="27" width="360.1" height="1"/>
	</defs>
	<clipPath id="SVGID_20_">
		<use xlink:href="#SVGID_19_"  style="overflow:visible;"/>
	</clipPath>
	<g class="st13">
		<path class="st9" d="M27.9,27.8h359.1"/>
	</g>
</g>
<g>
	<defs>
		<rect id="SVGID_21_" x="78" y="6" width="2" height="480"/>
	</defs>
	<clipPath id="SVGID_22_">
		<use xlink:href="#SVGID_21_"  style="overflow:visible;"/>
	</clipPath>
	<g class="st14">
		<path class="st9" d="M79.2,485.8V6"/>
	</g>
</g>
<g>
	<defs>
		<rect id="SVGID_23_" x="164" y="6" width="1" height="480"/>
	</defs>
	<clipPath id="SVGID_24_">
		<use xlink:href="#SVGID_23_"  style="overflow:visible;"/>
	</clipPath>
	<g class="st15">
		<path class="st9" d="M164.7,485.8V6"/>
	</g>
</g>
<g>
	<defs>
		<rect id="SVGID_25_" x="249" y="6" width="2" height="480"/>
	</defs>
	<clipPath id="SVGID_26_">
		<use xlink:href="#SVGID_25_"  style="overflow:visible;"/>
	</clipPath>
	<g class="st16">
		<path class="st9" d="M250.2,485.8V6"/>
	</g>
</g>
<g>
	<defs>
		<rect id="SVGID_27_" x="335" y="6" width="1" height="480"/>
	</defs>
	<clipPath id="SVGID_28_">
		<use xlink:href="#SVGID_27_"  style="overflow:visible;"/>
	</clipPath>
	<g class="st17">
		<path class="st9" d="M335.7,485.8V6"/>
	</g>
</g>
<path class="st18" d="M83.8,416.9c0,6.2-9.2,6.2-9.2,0S83.8,410.7,83.8,416.9"/>
<path class="st19" d="M169.3,237c0,6.2-9.2,6.2-9.2,0C160.1,230.9,169.3,230.9,169.3,237"/>
<path class="st20" d="M254.8,75.6c0,6.2-9.2,6.2-9.2,0C245.5,69.4,254.8,69.4,254.8,75.6"/>
<path class="st21" d="M340.3,260.2c0,6.2-9.2,6.2-9.2,0C331,254,340.3,254,340.3,260.2"/>
<g>
	<defs>
		<rect id="SVGID_29_" x="27.9" y="6" width="360.1" height="480.8"/>
	</defs>
	<clipPath id="SVGID_30_">
		<use xlink:href="#SVGID_29_"  style="overflow:visible;"/>
	</clipPath>
	<g class="st22">
		<path class="st23" d="M27.9,485.8h359.1V6H27.9V485.8z"/>
	</g>
</g>
<path class="st24" d="M24.9,464h3"/>
<path class="st24" d="M24.9,354.9h3"/>
<path class="st24" d="M24.9,245.9h3"/>
<path class="st24" d="M24.9,136.8h3"/>
<path class="st24" d="M24.9,27.8h3"/>
<path class="st24" d="M79.2,488.8v-3"/>
<path class="st24" d="M164.7,488.8v-3"/>
<path class="st24" d="M250.2,488.8v-3"/>
<path class="st24" d="M335.7,488.8v-3"/>
<path class="st0" d="M395.4,291.1h94.1v-90.6h-94.1V291.1z"/>
<path class="st25" d="M399.7,235.1H417v-17.3h-17.3V235.1z"/>
<path class="st18" d="M413,226.4c0,6.2-9.2,6.2-9.2,0S413,220.3,413,226.4"/>
<path class="st25" d="M399.7,252.3H417v-17.3h-17.3V252.3z"/>
<path class="st19" d="M413,243.7c0,6.2-9.2,6.2-9.2,0C403.7,237.5,413,237.5,413,243.7"/>
<path class="st25" d="M399.7,269.6H417v-17.3h-17.3V269.6z"/>
<path class="st20" d="M413,261c0,6.2-9.2,6.2-9.2,0S413,254.8,413,261"/>
<path class="st25" d="M399.7,286.9H417v-17.3h-17.3V286.9z"/>
<path class="st21" d="M413,278.3c0,6.2-9.2,6.2-9.2,0S413,272.1,413,278.3"/>
</svg>
